<svg xmlns="http://www.w3.org/2000/svg" width="1080" height="720" viewBox="0 0 1080 720"><rect width="1080" height="720" fill="#F1F4EC"/><circle cx="876" cy="212" r="264" fill="#E1EBD8"/><g font-family="Microsoft YaHei"><text x="76" y="98" fill="#176B52" font-size="30" font-weight="700">BAYLINK · 公共服务</text><text x="76" y="203" fill="#16352B" font-size="64" font-weight="700">先弄清医保</text><text x="80" y="261" fill="#3F5247" font-size="31">Medicare / Medi-Cal / HICAP</text></g><rect x="79" y="322" width="525" height="287" rx="24" fill="#FFFFFF" stroke="#C9D3C1" stroke-width="3"/><g fill="none" stroke="#176B52" stroke-width="9" stroke-linecap="round" stroke-linejoin="round"><path d="M282 548C242 517 139 450 165 398c24-45 77-40 117 9 40-49 93-54 117-9 26 52-77 119-117 150Z"/><path d="M177 457h52l23-43 26 86 26-52h85"/><path d="M442 373h104v177H442zM465 406h57M465 445h40M465 486h50"/></g><g font-family="Microsoft YaHei"><text x="663" y="391" fill="#176B52" font-size="34" font-weight="700">免费咨询起步</text><text x="663" y="453" fill="#3F5247" font-size="29" font-weight="400">核对报名时间</text><text x="663" y="515" fill="#3F5247" font-size="29" font-weight="400">准备保险与药单</text><text x="80" y="666" fill="#5B6B61" font-size="25">AI 辅助原创示意图 · 非保险卡或个人资格判断</text></g></svg>