<svg xmlns="http://www.w3.org/2000/svg" width="1080" height="720" viewBox="0 0 1080 720"><rect width="1080" height="720" fill="#F1F4EC"/><circle cx="876" cy="212" r="264" fill="#E1EBD8"/><g font-family="Microsoft YaHei"><text x="76" y="98" fill="#176B52" font-size="30" font-weight="700">BAYLINK · 公共服務</text><text x="76" y="203" fill="#16352B" font-size="64" font-weight="700">免費報稅幫助</text><text x="80" y="261" fill="#3F5247" font-size="31">VITA / TCE / CalFile</text></g><rect x="79" y="322" width="525" height="287" rx="24" fill="#FFFFFF" stroke="#C9D3C1" stroke-width="3"/><g fill="none" stroke="#176B52" stroke-width="9" stroke-linecap="round" stroke-linejoin="round"><rect x="130" y="366" width="192" height="197" rx="13"/><path d="M160 411h129M160 456h83M160 501h110"/><rect x="386" y="385" width="157" height="178" rx="13"/><path d="M411 416h105M413 460h9m27 0h9m27 0h9M413 498h9m27 0h9m27 0h9M413 536h9m27 0h9m27 0h9"/></g><g font-family="Microsoft YaHei"><text x="663" y="391" fill="#176B52" font-size="34" font-weight="700">先找服務入口</text><text x="663" y="453" fill="#3F5247" font-size="29" font-weight="400">核對資格與表格</text><text x="663" y="515" fill="#3F5247" font-size="29" font-weight="400">再預約、備材料</text><text x="80" y="666" fill="#5B6B61" font-size="25">AI 輔助原創示意圖 · 非官方表格或辦理承諾</text></g></svg>