<svg xmlns="http://www.w3.org/2000/svg" width="1080" height="720" viewBox="0 0 1080 720"><title>Senior services: companionship, meals and county referrals</title><desc>Original BAYLINK AI-assisted thematic vector illustration; not a photograph, provider location, official form or eligibility result.</desc><metadata>Creator: BAYLINK with AI-assisted authored vector geometry. Copyright: BAYLINK original artwork, all rights reserved unless separately licensed. No third-party photographs, fonts or external imagery. Editable SVG source retained beside the responsive WebP derivatives.</metadata><defs><linearGradient id="background" x1="0" y1="0" x2="1" y2="1"><stop stop-color="#faf6eb"/><stop offset="1" stop-color="#e8efdf"/></linearGradient><filter id="shadow" x="-25%" y="-25%" width="150%" height="160%"><feDropShadow dx="0" dy="10" stdDeviation="12" flood-color="#1b4538" flood-opacity=".12"/></filter></defs><rect width="1080" height="720" fill="url(#background)"/><circle cx="960" cy="90" r="140" fill="#d2e5d1" opacity=".5"/><circle cx="65" cy="650" r="160" fill="#edd8bc" opacity=".4"/><path d="M70 626H1010" stroke="#b9cab6" stroke-width="3"/>
<ellipse cx="352" cy="380" rx="249" ry="218" fill="#e3ebd8"/>
<g filter="url(#shadow)"><path d="M130 459C138 377 187 353 242 353C296 353 335 389 336 464V541H130Z" fill="#be794e"/><path d="M149 457C157 396 177 378 190 379L209 541H143Z" fill="#c88a61"/><path d="M272 369L241 392L214 367" fill="none" stroke="#f4d6b8" stroke-width="8" stroke-linecap="round"/>
<ellipse cx="230" cy="296" rx="64" ry="76" fill="#e6bb94"/><path d="M169 288C146 217 198 196 239 211C284 214 306 251 291 298L278 254C257 260 223 241 210 244C201 269 190 282 169 288Z" fill="#d9dbd1"/><path d="M174 283C181 243 183 226 198 218M289 284C287 248 274 223 254 218" stroke="#f7f5eb" stroke-width="12" stroke-linecap="round"/><path d="M195 295H224M240 295H269M224 294H240" stroke="#416453" stroke-width="4" stroke-linecap="round"/><rect x="193" y="287" width="32" height="23" rx="9" fill="none" stroke="#416453" stroke-width="4"/><rect x="239" y="287" width="32" height="23" rx="9" fill="none" stroke="#416453" stroke-width="4"/><path d="M218 331Q233 341 248 329" fill="none" stroke="#a0614b" stroke-width="4" stroke-linecap="round"/>
<path d="M364 457C364 375 407 352 461 352C519 352 568 388 577 460V541H364Z" fill="#326650"/><path d="M404 369L436 395L470 372" fill="none" stroke="#e9c5a2" stroke-width="9" stroke-linecap="round"/><ellipse cx="460" cy="289" rx="60" ry="74" fill="#d9ae87"/><path d="M401 271C395 224 420 199 461 201C503 202 527 229 520 274L503 251C468 267 437 239 421 254L419 286Z" fill="#f5f0dc"/><path d="M423 291H435M482 291H494M440 327Q458 338 478 326" stroke="#755246" stroke-width="4" stroke-linecap="round" fill="none"/>
<path d="M290 446C317 466 345 468 384 451" stroke="#dfb28a" stroke-width="23" fill="none" stroke-linecap="round"/><path d="M162 537H546" stroke="#244c3e" stroke-width="13" stroke-linecap="round"/><path d="M171 543V593M535 543V593" stroke="#9b8367" stroke-width="13" stroke-linecap="round"/></g>
<path d="M620 291V500M620 291H680M620 396H680M620 500H680" stroke="#89a98b" stroke-width="5" stroke-linecap="round" stroke-dasharray="7 12"/>
<g filter="url(#shadow)"><rect x="677" y="151" width="256" height="138" rx="24" fill="#fff9ee"/><circle cx="747" cy="220" r="41" fill="#efd9b8"/><circle cx="747" cy="220" r="30" fill="#fff8e9" stroke="#bda47e" stroke-width="2"/><path d="M729 225Q730 206 743 216Q753 202 765 216Q766 233 742 238Z" fill="#91ad68"/><circle cx="759" cy="226" r="9" fill="#c7844b"/><path d="M718 196V244M714 197V210M722 197V210M779 198V244" stroke="#807962" stroke-width="4" stroke-linecap="round"/><path d="M809 205H887M809 229H869" stroke="#b9c6ae" stroke-width="8" stroke-linecap="round"/>
<rect x="677" y="316" width="256" height="138" rx="24" fill="#fff9ee"/><rect x="717" y="344" width="60" height="54" rx="14" fill="#c89c72"/><path d="M718 380V420M776 380V420M711 394H783" stroke="#956e4e" stroke-width="7" stroke-linecap="round"/><path d="M809 368H887M809 393H869" stroke="#b9c6ae" stroke-width="8" stroke-linecap="round"/>
<rect x="677" y="481" width="256" height="138" rx="24" fill="#fff9ee"/><path d="M745 510C722 510 709 531 719 550L745 588L771 550C781 531 767 510 745 510Z" fill="#548472"/><circle cx="745" cy="535" r="12" fill="#fff6e7"/><path d="M809 533H887M809 558H869" stroke="#b9c6ae" stroke-width="8" stroke-linecap="round"/></g>
<circle cx="147" cy="160" r="11" fill="#c19568"/><circle cx="183" cy="133" r="7" fill="#8daf8c"/><path d="M577 156C575 124 597 108 609 89C617 116 636 139 609 158" fill="#9cb69a"/><path d="M608 159V204" stroke="#759875" stroke-width="4" stroke-linecap="round"/></svg>